<?xml version="1.0" encoding="utf-8"?>
<!-- Generator: Adobe Illustrator 28.0.0, SVG Export Plug-In . SVG Version: 6.00 Build 0)  -->
<svg version="1.1" id="Capa_1" xmlns="http://www.w3.org/2000/svg" xmlns:xlink="http://www.w3.org/1999/xlink" x="0px" y="0px"
	 viewBox="0 0 30 30" style="enable-background:new 0 0 30 30;" xml:space="preserve">
<style type="text/css">
	.st0{fill:#FFFFFF;}
</style>
<path class="st0" d="M25.9,16H4.4c-0.5,0-1-0.4-1-1v0c0-0.5,0.4-1,1-1h21.5c0.5,0,1,0.4,1,1v0C26.8,15.5,26.4,16,25.9,16z"/>
<path class="st0" d="M25.7,24.1H4.3c-0.5,0-1-0.4-1-1v0c0-0.5,0.4-1,1-1h21.5c0.5,0,1,0.4,1,1v0C26.7,23.6,26.3,24.1,25.7,24.1z"/>
<path class="st0" d="M25.7,7.9H4.3c-0.5,0-1-0.4-1-1v0c0-0.5,0.4-1,1-1h21.5c0.5,0,1,0.4,1,1v0C26.7,7.4,26.3,7.9,25.7,7.9z"/>
</svg>
